<svg width="25" height="21" viewBox="0 0 25 21" fill="none" xmlns="http://www.w3.org/2000/svg">
<path d="M4.0625 0.776855H20.9375C23.1038 0.776855 24.874 2.47336 24.9936 4.61097L25 4.84162V16.7232C25 18.8907 23.3044 20.6619 21.168 20.7816L20.9375 20.788H4.0625C1.89621 20.788 0.125938 19.0914 0.00642508 16.9539L0 16.7232V4.84162C0 2.67413 1.69556 0.902863 3.83197 0.783284L4.0625 0.776855H20.9375H4.0625ZM23.125 7.49685L12.9366 12.8632C12.7024 12.9865 12.4289 13.0042 12.1835 12.9161L12.0634 12.8632L1.875 7.4981V16.7232C1.875 17.8716 2.75889 18.8134 3.88309 18.9047L4.0625 18.912H20.9375C22.0853 18.912 23.0265 18.0276 23.1178 16.9027L23.125 16.7232V7.49685ZM20.9375 2.6529H4.0625C2.91479 2.6529 1.97351 3.53728 1.88225 4.66211L1.875 4.84162V5.37817L12.5 10.9732L23.125 5.37692V4.84162C23.125 3.69327 22.2411 2.75147 21.1169 2.66015L20.9375 2.6529Z" fill="#5C6574"/>
</svg>
