<svg width="24" height="25" viewBox="0 0 24 25" fill="none" xmlns="http://www.w3.org/2000/svg">
<path d="M6.74603 0.949737C5.18396 0.553802 3.55028 0.722225 2.26938 1.4393C0.965628 2.16915 0.0503584 3.46169 0.00520842 5.19353C-0.0652916 7.89705 0.560974 11.5254 3.04509 15.7862C5.49734 19.9923 8.20533 22.5134 10.4513 24.0124C11.8703 24.9596 13.4388 24.9845 14.7783 24.3669C16.097 23.759 17.1686 22.5455 17.7251 21.0402C18.0051 20.2824 17.9391 19.44 17.5446 18.7352L16.1144 16.1797C15.2049 14.5546 13.2414 13.8431 11.5028 14.5085L10.5042 14.8907C10.0204 15.0759 9.57533 14.9906 9.32243 14.7421C8.47463 13.9088 7.86897 12.7775 7.5942 11.5588C7.5078 11.1756 7.68332 10.7224 8.10735 10.4022L9.00905 9.72136C10.5169 8.58283 10.9429 6.49983 10.0034 4.86015L8.54556 2.31611C8.15555 1.6355 7.50614 1.1424 6.74603 0.949737ZM1.5047 5.23268C1.53495 4.07242 2.12168 3.24175 3.00179 2.74906C3.90476 2.24356 5.13681 2.09009 6.37767 2.40462C6.74372 2.4974 7.05645 2.73485 7.24427 3.06261L8.70206 5.60665C9.2658 6.59047 9.01017 7.84026 8.10548 8.52338L7.20378 9.20423C6.42498 9.79229 5.88578 10.8015 6.13097 11.8891C6.4635 13.364 7.20029 14.7602 8.27136 15.8128C9.05342 16.5814 10.1691 16.6259 11.0402 16.2924L12.0387 15.9103C13.082 15.5111 14.2599 15.9379 14.8056 16.913L16.2359 19.4685C16.4159 19.7898 16.4459 20.1741 16.3182 20.5196C15.8829 21.6971 15.0666 22.5816 14.1506 23.0039C13.2557 23.4165 12.243 23.4043 11.2837 22.7639C9.22751 21.3915 6.67797 19.0388 4.34076 15.0299C1.99565 11.0076 1.44155 7.65427 1.5047 5.23268ZM16.0571 0.869307C15.695 0.66803 15.2384 0.798558 15.0372 1.16085C14.8361 1.52315 14.9666 1.98 15.3287 2.18126L15.9045 2.50142C19.557 4.53174 21.9836 8.22384 22.3994 12.3838L22.4466 12.8563C22.4877 13.2686 22.8554 13.5695 23.2674 13.5282C23.6796 13.4871 23.9804 13.1192 23.9391 12.7069L23.8919 12.2344C23.4272 7.5851 20.7153 3.45863 16.6331 1.18945L16.0571 0.869307ZM14.2998 4.89131C14.513 4.53593 14.9736 4.42069 15.3288 4.63392L15.515 4.74568C17.9645 6.21626 19.6463 8.68774 20.1159 11.5071L20.1827 11.9078C20.2508 12.3166 19.9748 12.7032 19.5662 12.7714C19.1576 12.8395 18.7712 12.5633 18.7031 12.1545L18.6363 11.7539C18.239 9.36823 16.8159 7.27698 14.7432 6.03265L14.5571 5.92088C14.2019 5.70764 14.0867 5.24669 14.2998 4.89131Z" fill="#5C6574"/>
</svg>
